<svg version="1.0" xmlns="http://www.w3.org/2000/svg" xmlns:xlink="http://www.w3.org/1999/xlink" width="100%" height="100%" viewBox="40 95 260.000000 55.000000" preserveAspectRatio="xMidYMid meet" color-interpolation-filters="sRGB" style="margin: auto;"> <rect x="0" y="0" width="100%" height="100%" fill="#ffffff" fill-opacity="0"></rect><g fill="#e69138" transform="translate(47.415000915527344,95.47621726989746)"><g transform="translate(0,0)"><g><rect fill="#e69138" fill-opacity="0" stroke-width="2" x="0" y="0" width="60" height="59.04756281184494" ></rect> <svg filter="url(#colors5076739138)" x="0" y="0" width="60" height="59.04756281184494" filtersec="colorsf3873154134" style="overflow: visible;"><svg xmlns="http://www.w3.org/2000/svg" xmlns:xlink="http://www.w3.org/1999/xlink" viewBox="2.25 2 19.75002 19.50002" version="1.1" x="0px" y="0px"><g stroke="none" stroke-width="1" fill-rule="evenodd"><g><path d="M17.25,6.56066017 L15.75,8.06066017 L15.75,10.6487188 L17.25,9.39871879 L17.25,6.56066017 Z M18.6950825,4.46777428 C18.6584709,4.37749031 18.6035534,4.29289322 18.5303301,4.21966991 C18.4571068,4.14644661 18.3725097,4.09152913 18.2822257,4.05491748 C18.2022051,4.02098665 18.1035534,4 18,4 L8,4 C7.89644661,4 7.79779491,4.02098665 7.70806615,4.05893872 C7.62749031,4.09152913 7.54289322,4.14644661 7.46966991,4.21966991 L4.46966991,7.21966991 C4.2913589,7.39798093 4.22160219,7.64373893 4.26039976,7.87482156 C4.25356025,7.91552885 4.25,7.95734866 4.25,8 L4.25,12 C4.25,12.042589 4.25354985,12.0843489 4.26036981,12.125 C4.25354985,12.1656511 4.25,12.207411 4.25,12.25 C4.25,12.6642136 4.58578644,13 5,13 L6.43933983,13 L5.71966991,13.7196699 C5.5413589,13.8979809 5.47160219,14.1437389 5.51039976,14.3748216 C5.50356025,14.4155289 5.5,14.4573487 5.5,14.5 L5.5,18.5 C5.5,18.542589 5.50354985,18.5843489 5.51036981,18.625 C5.50354985,18.6656511 5.5,18.707411 5.5,18.75 C5.5,19.1642136 5.83578644,19.5 6.25,19.5 L16.2450775,19.5 C16.3314124,19.5006098 16.4180843,19.4863933 16.5009777,19.4569766 C16.5923016,19.423318 16.6679859,19.3787534 16.7339198,19.3230147 L19.7257382,16.8298327 C19.8102014,16.7604518 19.8792362,16.6729766 19.9269174,16.5733326 C19.9777668,16.4626096 20.0007721,16.3535753 20,16.2442724 L20,11.25 C20,11.1464466 19.9790133,11.0477949 19.9410613,10.9580662 C19.9084709,10.8774903 19.8535534,10.7928932 19.7803301,10.7196699 C19.7071068,10.6464466 19.6225097,10.5915291 19.5322257,10.5549175 C19.4522051,10.5209867 19.3535534,10.5 19.25,10.5 L18.2715375,10.5 L18.4757382,10.3298327 C18.5602014,10.2604518 18.6292362,10.1729766 18.6769174,10.0733326 C18.7277668,9.96260957 18.7507721,9.85357534 18.75,9.74427236 L18.75,4.75 C18.75,4.64644661 18.7290133,4.54779491 18.6910613,4.45806615 Z M14.25,11.5 L5.75,11.5 L5.75,8.5 L14.25,8.5 L14.25,11.5 Z M15.4839198,12.8230147 C15.4179859,12.8787534 15.3423016,12.923318 15.2597889,12.9537865 C15.1680843,12.9863933 15.0814124,13.0006098 14.9950775,13 L8.55829766,13 C8.54728906,13.0125753 8.53578962,13.0248706 8.52379932,13.0368608 L8.06066017,13.5 L15.9393398,13.5 L17.4393398,12 L16.4715375,12 L15.4839198,12.8230147 Z M14.6893398,7 L6.81066017,7 L8.31066017,5.5 L16.1893398,5.5 L14.6893398,7 Z M18.5,13.0606602 L17,14.5606602 L17,17.1487188 L18.5,15.8987188 L18.5,13.0606602 Z M15.5,18 L7,18 L7,15 L15.5,15 L15.5,18 Z"></path></g></g></svg></svg> <defs><filter id="colors5076739138"><feColorMatrix type="matrix" values="0 0 0 0 0.0078125  0 0 0 0 0.05859375  0 0 0 0 0.25  0 0 0 1 0" ></feColorMatrix></filter> <filter id="colorsf3873154134"><feColorMatrix type="matrix" values="0 0 0 0 0.99609375  0 0 0 0 0.99609375  0 0 0 0 0.99609375  0 0 0 1 0" ></feColorMatrix></filter> <filter id="colorsb2915397474"><feColorMatrix type="matrix" values="0 0 0 0 0  0 0 0 0 0  0 0 0 0 0  0 0 0 1 0" ></feColorMatrix></filter></defs></g></g> <g transform="translate(67,10.405782699584961)"><g data-gra="path-name" fill-rule="" transform="translate(0,0)"><g transform="scale(1)"><g><path d="M2.92 0L15.13 0 17.21-6.03 10.6-5.66 12.24-22.14 0.73-22.14ZM31.97-3.36L32.38 0 38.55 0 39.32-17.32 31.1-17.32 31.43-9.61 31.43-8.99C31.43-6.46 30.73-5.19 29.34-5.19 27.76-5.19 26.97-6.6 26.97-9.43L26.97-17.32 19.88-17.32C19.32-13.47 19.04-10.71 19.04-9.03 19.04-2.76 21.34 0.37 25.94 0.37 29.13 0.37 30.94-1.3 31.97-3.36ZM41.33-9.06C41.33-3.74 43.78 0.38 48.69 0.35 50.82 0.33 52.62-0.57 54.08-2.38L54.7 0 60.18 0 61.17-23.71 52.84-23.71 53.13-15.71 52.69-16.22C52.04-17.04 50.27-17.83 48.71-17.83 46.95-17.83 45.36-17.27 43.92-16.15 42.24-14.84 41.33-12.18 41.33-9.06ZM51.27-4.68C49.37-4.68 48.89-6.71 48.89-8.55 48.89-11.47 49.61-12.94 51.05-12.94 52.66-12.94 53.46-11.47 53.46-8.55 53.46-6.88 52.84-4.68 51.27-4.68ZM69.61 0.37C72.22 0.37 74.35-0.43 76-2.01L76.22 0 82.25 0 82.44-1.61C82.87-4.97 83.09-7.6 83.09-9.5 83.09-15.05 79.83-17.83 73.3-17.83 71.04-17.83 68.81-17.38 66.61-16.48L67.53-13.19C69.04-13.61 70.3-13.81 71.33-13.81 73.57-13.81 74.85-12.8 75.16-10.78 73.75-11.39 72.08-11.69 70.16-11.69 68.23-11.69 66.59-11.24 65.23-10.32 63.86-9.41 63.18-7.95 63.18-5.94 63.18-2.03 65.77 0.37 69.61 0.37ZM70.93-6.21C70.93-7.42 72.17-8.11 73.47-8.11 74.21-8.11 74.88-7.9 75.49-7.49L75.71-5.08C74.93-4.47 74-4.17 72.9-4.17 71.77-4.17 70.93-5.11 70.93-6.21ZM97.86-7.75L95.77-22.14 84.19-22.14 91.02 0 100.41 0 101.22-0.8C102.88-2.32 104.41-5.14 105.6-7.64 107.25-11.09 108.42-16.84 108.42-22.14L101.84-22.14C101.84-16.23 100.27-10.75 97.86-7.75ZM116.86 0.37C119.46 0.37 121.6-0.43 123.25-2.01L123.47 0 129.5 0 129.68-1.61C130.12-4.97 130.34-7.6 130.34-9.5 130.34-15.05 127.08-17.83 120.55-17.83 118.28-17.83 116.05-17.38 113.86-16.48L114.77-13.19C116.29-13.61 117.55-13.81 118.57-13.81 120.82-13.81 122.1-12.8 122.41-10.78 121-11.39 119.33-11.69 117.41-11.69 115.48-11.69 113.84-11.24 112.47-10.32 111.11-9.41 110.43-7.95 110.43-5.94 110.43-2.03 113.02 0.37 116.86 0.37ZM118.17-6.21C118.17-7.42 119.42-8.11 120.71-8.11 121.46-8.11 122.13-7.9 122.74-7.49L122.96-5.08C122.18-4.47 121.24-4.17 120.15-4.17 119.02-4.17 118.17-5.11 118.17-6.21ZM145.47-3.36L145.87 0 152.05 0 152.81-17.32 144.59-17.32 144.92-9.61 144.92-8.99C144.92-6.46 144.23-5.19 142.84-5.19 141.25-5.19 140.46-6.6 140.46-9.43L140.46-17.32 133.37-17.32C132.81-13.47 132.53-10.71 132.53-9.03 132.53-2.76 134.84 0.37 139.44 0.37 142.62 0.37 144.44-1.3 145.47-3.36ZM163.7-23.71L155.01-23.71 155.99 0 162.72 0ZM178.9-1.24L178.14-4.79C177.72-4.52 177.37-4.38 177.08-4.38 176.05-4.38 175.55-5.09 175.58-6.5L175.83-12.57 178.61-12.57 178.17-17.32 176.05-17.32 176.31-22.66 167.65-20.9 167.8-17.32 165.6-17.32 165.16-12.57 167.98-12.57 168.31-5.66C168.45-2.32 170.62 0.37 174.04 0.37 175.94 0.37 177.99-0.48 178.9-1.24Z" transform="translate(-0.7300000190734863, 23.709999084472656)"></path></g> <!----> <!----> <!----> <!----> <!----> <!----> <!----></g></g> <g data-gra="path-slogan" fill-rule="" fill="#e69138" transform="translate(17.50499725341797,30.080001831054688)"><!----> <!----> <g transform="scale(1, 1)"><g transform="scale(1)"><path d="M1.08-7.87L1.08 0L5.52 0L5.52-0.85L2.08-0.85L2.08-7.87ZM6.91-7.87L6.91 0L11.57 0L11.57-0.85L7.91-0.85L7.91-3.71L10.90-3.71L10.90-4.56L7.91-4.56L7.91-7.03L11.45-7.03L11.45-7.87ZM12.16-7.87L14.68 0L15.84 0L18.34-7.87L17.32-7.87L16.06-3.62C15.92-3.15 15.80-2.72 15.68-2.32C15.57-1.92 15.44-1.48 15.30-1.02L15.25-1.02C15.10-1.48 14.97-1.92 14.86-2.32C14.75-2.72 14.63-3.15 14.48-3.62L13.22-7.87ZM19.42-7.87L19.42 0L24.07 0L24.07-0.85L20.41-0.85L20.41-3.71L23.40-3.71L23.40-4.56L20.41-4.56L20.41-7.03L23.95-7.03L23.95-7.87ZM25.74-7.87L25.74 0L30.18 0L30.18-0.85L26.74-0.85L26.74-7.87ZM33.96-7.87L33.96-3.25C33.96-2.62 34.03-2.09 34.18-1.66C34.32-1.22 34.52-0.87 34.77-0.61C35.02-0.34 35.32-0.15 35.67-0.03C36.02 0.09 36.39 0.14 36.79 0.14C37.19 0.14 37.56 0.09 37.91-0.03C38.25-0.15 38.55-0.34 38.80-0.61C39.05-0.87 39.25-1.22 39.40-1.66C39.54-2.09 39.61-2.62 39.61-3.25L39.61-7.87L38.65-7.87L38.65-3.23C38.65-2.76 38.60-2.36 38.51-2.04C38.41-1.72 38.28-1.46 38.11-1.27C37.94-1.08 37.75-0.94 37.52-0.86C37.30-0.77 37.06-0.73 36.79-0.73C36.54-0.73 36.30-0.77 36.07-0.86C35.85-0.94 35.65-1.08 35.49-1.27C35.33-1.46 35.20-1.72 35.10-2.04C35.00-2.36 34.96-2.76 34.96-3.23L34.96-7.87ZM41.74-7.87L41.74 0L42.73 0L42.73-3.12L44.15-3.12C44.58-3.12 44.97-3.17 45.33-3.27C45.69-3.37 45.99-3.52 46.25-3.72C46.50-3.92 46.70-4.17 46.84-4.48C46.98-4.78 47.05-5.14 47.05-5.56C47.05-5.99 46.98-6.35 46.84-6.65C46.70-6.94 46.51-7.18 46.25-7.36C46.00-7.54 45.70-7.67 45.34-7.75C44.98-7.83 44.58-7.87 44.15-7.87ZM44.03-3.94L42.73-3.94L42.73-7.07L44.03-7.07C44.71-7.07 45.22-6.96 45.55-6.74C45.89-6.52 46.06-6.12 46.06-5.56C46.06-5.00 45.89-4.59 45.56-4.33C45.23-4.07 44.72-3.94 44.03-3.94ZM52.34-3.05L52.34 0L53.35 0L53.35-3.05L55.72-7.87L54.67-7.87L53.66-5.65C53.54-5.36 53.42-5.08 53.28-4.80C53.14-4.52 53.01-4.23 52.87-3.94L52.82-3.94C52.69-4.23 52.56-4.52 52.44-4.80C52.32-5.08 52.20-5.36 52.07-5.65L51.05-7.87L49.98-7.87ZM59.52 0.14C60.02 0.14 60.47 0.05 60.88-0.14C61.29-0.34 61.65-0.61 61.95-0.97C62.25-1.32 62.48-1.75 62.65-2.26C62.81-2.77 62.89-3.34 62.89-3.97C62.89-4.60 62.81-5.16 62.65-5.66C62.48-6.16 62.25-6.58 61.95-6.93C61.65-7.28 61.29-7.55 60.88-7.73C60.47-7.92 60.02-8.02 59.52-8.02C59.02-8.02 58.57-7.92 58.16-7.74C57.75-7.56 57.39-7.29 57.10-6.94C56.80-6.59 56.57-6.17 56.41-5.67C56.24-5.17 56.16-4.60 56.16-3.97C56.16-3.34 56.24-2.77 56.41-2.26C56.57-1.75 56.80-1.32 57.10-0.97C57.39-0.61 57.75-0.34 58.16-0.14C58.57 0.05 59.02 0.14 59.52 0.14ZM59.52-0.73C59.17-0.73 58.85-0.81 58.57-0.96C58.28-1.11 58.04-1.33 57.83-1.61C57.63-1.90 57.47-2.24 57.36-2.63C57.25-3.03 57.19-3.48 57.19-3.97C57.19-4.46 57.25-4.90 57.36-5.29C57.47-5.68 57.63-6.02 57.83-6.29C58.04-6.56 58.28-6.77 58.57-6.92C58.85-7.07 59.17-7.14 59.52-7.14C59.87-7.14 60.19-7.07 60.47-6.92C60.76-6.77 61.00-6.56 61.21-6.29C61.41-6.02 61.57-5.68 61.68-5.29C61.79-4.90 61.85-4.46 61.85-3.97C61.85-3.48 61.79-3.03 61.68-2.63C61.57-2.24 61.41-1.90 61.21-1.61C61.00-1.33 60.76-1.11 60.47-0.96C60.19-0.81 59.87-0.73 59.52-0.73ZM64.55-7.87L64.55-3.25C64.55-2.62 64.62-2.09 64.76-1.66C64.91-1.22 65.11-0.87 65.36-0.61C65.61-0.34 65.91-0.15 66.26-0.03C66.61 0.09 66.98 0.14 67.38 0.14C67.78 0.14 68.15 0.09 68.50-0.03C68.84-0.15 69.14-0.34 69.39-0.61C69.64-0.87 69.84-1.22 69.98-1.66C70.13-2.09 70.20-2.62 70.20-3.25L70.20-7.87L69.24-7.87L69.24-3.23C69.24-2.76 69.19-2.36 69.10-2.04C69.00-1.72 68.87-1.46 68.70-1.27C68.53-1.08 68.34-0.94 68.11-0.86C67.89-0.77 67.64-0.73 67.38-0.73C67.12-0.73 66.88-0.77 66.66-0.86C66.44-0.94 66.24-1.08 66.08-1.27C65.91-1.46 65.78-1.72 65.69-2.04C65.59-2.36 65.54-2.76 65.54-3.23L65.54-7.87ZM73.32-4.14L73.32-7.07L74.64-7.07C75.26-7.07 75.73-6.96 76.06-6.76C76.38-6.55 76.55-6.18 76.55-5.66C76.55-5.15 76.38-4.77 76.06-4.52C75.73-4.27 75.26-4.14 74.64-4.14ZM76.64 0L77.77 0L75.78-3.43C76.32-3.57 76.74-3.82 77.06-4.19C77.38-4.56 77.54-5.05 77.54-5.66C77.54-6.07 77.48-6.42 77.34-6.70C77.20-6.98 77.01-7.20 76.77-7.38C76.53-7.56 76.23-7.68 75.89-7.76C75.55-7.83 75.18-7.87 74.78-7.87L72.32-7.87L72.32 0L73.32 0L73.32-3.32L74.75-3.32ZM81.26-3.94C81.26-3.30 81.35-2.72 81.53-2.21C81.70-1.71 81.95-1.28 82.26-0.93C82.57-0.58 82.94-0.32 83.38-0.13C83.81 0.05 84.28 0.14 84.80 0.14C85.33 0.14 85.81 0.06 86.23-0.11C86.65-0.29 86.98-0.50 87.24-0.77L87.24-4.08L84.66-4.08L84.66-3.25L86.33-3.25L86.33-1.20C86.17-1.06 85.96-0.94 85.71-0.86C85.46-0.77 85.19-0.73 84.91-0.73C84.49-0.73 84.11-0.81 83.79-0.96C83.47-1.11 83.19-1.33 82.97-1.61C82.75-1.89 82.59-2.23 82.47-2.62C82.35-3.02 82.30-3.46 82.30-3.96C82.30-4.45 82.36-4.89 82.48-5.28C82.61-5.67 82.78-6.01 83.00-6.28C83.23-6.56 83.50-6.77 83.82-6.92C84.14-7.07 84.50-7.14 84.90-7.14C85.30-7.14 85.63-7.07 85.89-6.93C86.15-6.79 86.38-6.62 86.58-6.41L87.14-7.04C86.91-7.28 86.61-7.51 86.25-7.71C85.89-7.91 85.43-8.02 84.89-8.02C84.36-8.02 83.88-7.92 83.44-7.73C83.00-7.55 82.61-7.28 82.29-6.92C81.97-6.57 81.71-6.14 81.53-5.64C81.35-5.14 81.26-4.57 81.26-3.94ZM92.42-3.20L90.06-3.20L90.43-4.40C90.58-4.84 90.71-5.28 90.84-5.72C90.97-6.15 91.09-6.60 91.21-7.06L91.26-7.06C91.39-6.60 91.52-6.15 91.64-5.72C91.77-5.28 91.91-4.84 92.05-4.40ZM92.68-2.40L93.42 0L94.49 0L91.82-7.87L90.70-7.87L88.03 0L89.05 0L89.81-2.40ZM95.60-7.87L95.60 0L96.53 0L96.53-4.33C96.53-4.68 96.51-5.07 96.48-5.50C96.45-5.92 96.42-6.31 96.40-6.66L96.44-6.66L97.07-4.91L98.59-0.79L99.16-0.79L100.67-4.91L101.30-6.66L101.35-6.66C101.32-6.31 101.29-5.92 101.26-5.50C101.23-5.07 101.22-4.68 101.22-4.33L101.22 0L102.17 0L102.17-7.87L100.99-7.87L99.48-3.65L98.93-2.04L98.88-2.04L98.30-3.65L96.78-7.87ZM104.33-7.87L104.33 0L108.98 0L108.98-0.85L105.32-0.85L105.32-3.71L108.31-3.71L108.31-4.56L105.32-4.56L105.32-7.03L108.86-7.03L108.86-7.87ZM113.08-7.87L113.08 0L114.02 0L114.02-4.12C114.02-4.53 114.01-4.95 113.98-5.36C113.95-5.77 113.92-6.18 113.89-6.58L113.94-6.58L114.79-4.96L117.65 0L118.68 0L118.68-7.87L117.73-7.87L117.73-3.80C117.73-3.39 117.75-2.97 117.77-2.54C117.80-2.11 117.83-1.70 117.85-1.30L117.80-1.30L116.95-2.93L114.11-7.87ZM120.84-7.87L120.84 0L121.84 0L121.84-7.87ZM123.54-3.94C123.54-3.30 123.63-2.72 123.80-2.21C123.98-1.71 124.22-1.28 124.54-0.93C124.85-0.58 125.22-0.32 125.65-0.13C126.08 0.05 126.56 0.14 127.08 0.14C127.61 0.14 128.08 0.06 128.50-0.11C128.92-0.29 129.26-0.50 129.52-0.77L129.52-4.08L126.94-4.08L126.94-3.25L128.60-3.25L128.60-1.20C128.44-1.06 128.24-0.94 127.99-0.86C127.73-0.77 127.47-0.73 127.19-0.73C126.76-0.73 126.39-0.81 126.07-0.96C125.74-1.11 125.47-1.33 125.25-1.61C125.03-1.89 124.86-2.23 124.75-2.62C124.63-3.02 124.57-3.46 124.57-3.96C124.57-4.45 124.63-4.89 124.76-5.28C124.88-5.67 125.06-6.01 125.28-6.28C125.50-6.56 125.78-6.77 126.10-6.92C126.42-7.07 126.78-7.14 127.18-7.14C127.58-7.14 127.91-7.07 128.17-6.93C128.43-6.79 128.66-6.62 128.86-6.41L129.42-7.04C129.19-7.28 128.89-7.51 128.53-7.71C128.16-7.91 127.71-8.02 127.16-8.02C126.64-8.02 126.15-7.92 125.71-7.73C125.27-7.55 124.89-7.28 124.57-6.92C124.24-6.57 123.99-6.14 123.81-5.64C123.63-5.14 123.54-4.57 123.54-3.94ZM131.40-7.87L131.40 0L132.40 0L132.40-3.71L136.06-3.71L136.06 0L137.06 0L137.06-7.87L136.06-7.87L136.06-4.57L132.40-4.57L132.40-7.87ZM140.86-7.03L140.86 0L141.86 0L141.86-7.03L144.24-7.03L144.24-7.87L138.48-7.87L138.48-7.03Z" transform="translate(-1.08, 8.016)"></path></g></g></g></g></g><defs v-gra="od"></defs></svg>